<svg xmlns="http://www.w3.org/2000/svg" xmlns:xlink="http://www.w3.org/1999/xlink" width="1080" zoomAndPan="magnify" viewBox="0 0 810 809.999993" height="1080" preserveAspectRatio="xMidYMid meet" version="1.0"><path fill="#f1a55f" d="M 330.726562 348.757812 C 329.371094 336.527344 327.316406 324.355469 324.742188 312.230469 C 324.515625 311.171875 324.277344 310.128906 324.039062 309.070312 C 311.4375 254.078125 276.402344 203.8125 234.070312 195.378906 C 180.847656 184.800781 118.777344 234.546875 79.808594 292.054688 C 58.671875 323.285156 26.558594 384.679688 35.390625 441.667969 C 39.054688 465.371094 49.824219 488.328125 71.394531 508.023438 C 88.269531 523.429688 111.761719 536.839844 143.652344 547.074219 C 188.234375 561.375 264.203125 556.011719 300.9375 495.003906 C 330.25 446.285156 336.074219 397.148438 330.726562 348.757812 Z M 330.726562 348.757812 " fill-opacity="1" fill-rule="evenodd"/><path fill="#e68c44" d="M 71.394531 508.023438 C 88.269531 523.429688 111.761719 536.839844 143.652344 547.074219 C 188.234375 561.375 264.203125 556.011719 300.9375 495.003906 C 330.25 446.300781 336.074219 397.164062 330.726562 348.773438 C 326.960938 351.054688 323.085938 353.320312 321.195312 354.765625 C 305.019531 367.070312 290.136719 380.402344 277.164062 396.105469 C 261.789062 414.730469 250.828125 436.527344 243.363281 459.425781 C 238.433594 474.53125 235.738281 496.464844 223.40625 507.695312 C 205.855469 523.667969 170.34375 524.398438 148.285156 524.679688 C 120.25 525.023438 94.691406 519.691406 71.394531 508.023438 Z M 71.394531 508.023438 " fill-opacity="1" fill-rule="evenodd"/><path fill="#e68c44" d="M 667.132812 512.0625 C 668.191406 511.808594 666.09375 512.332031 667.132812 512.0625 Z M 768.320312 448.742188 C 773.714844 439.089844 777.214844 428.257812 778.332031 416.128906 C 783.261719 362.539062 736.117188 302.277344 667.835938 264.328125 C 634.871094 246.019531 570.015625 222.285156 514.15625 236.589844 C 472.746094 247.195312 425.898438 290.386719 415.515625 355.730469 C 410.898438 384.8125 416.289062 420.882812 436.90625 451.292969 C 449.074219 469.242188 466.5625 485.199219 490.410156 496.582031 C 554.6875 527.230469 603.5 526.75 667.132812 512.0625 C 666.09375 512.332031 668.175781 511.824219 667.132812 512.0625 C 710.152344 500.722656 750.074219 481.386719 768.320312 448.742188 Z M 768.320312 448.742188 " fill-opacity="1" fill-rule="evenodd"/><path fill="#c9692e" d="M 436.90625 451.292969 C 449.074219 469.242188 466.5625 485.199219 490.410156 496.582031 C 554.6875 527.230469 603.5 526.75 667.132812 512.0625 C 666.09375 512.332031 668.175781 511.824219 667.132812 512.0625 C 710.152344 500.722656 750.074219 481.386719 768.304688 448.757812 C 764.238281 452.332031 760.007812 455.714844 755.570312 458.875 C 725.242188 480.476562 679.363281 485.484375 643.570312 475.546875 C 627.957031 471.210938 625.710938 458.054688 620.332031 444.75 C 613.480469 427.78125 606.375 412.136719 593.789062 398.503906 C 586.234375 390.328125 577.640625 383.382812 568.972656 376.457031 C 565.933594 374.027344 562.804688 371.746094 559.796875 369.289062 C 558.304688 368.066406 498.082031 401.828125 484.199219 411.542969 C 470.925781 420.839844 452.664062 434.796875 436.90625 451.292969 Z M 436.90625 451.292969 " fill-opacity="1" fill-rule="evenodd"/><path fill="#ffd7b0" d="M 594.800781 503.375 C 608.117188 479.851562 613.269531 457.503906 610.992188 440.027344 C 603.8125 385.023438 547.847656 350.652344 479.9375 336.527344 C 443.074219 328.855469 380.554688 323.835938 323.070312 360.902344 C 287.234375 384.007812 251.125 425.785156 254.328125 493.574219 C 255.25 513.074219 260.71875 533.128906 270.800781 551.273438 C 287.949219 582.113281 318.410156 607.457031 362.5 615.324219 C 417.003906 625.050781 470.332031 619.480469 535.457031 569.390625 C 562.761719 548.414062 582.347656 525.382812 594.800781 503.375 Z M 594.800781 503.375 " fill-opacity="1" fill-rule="evenodd"/><path fill="#f1a55f" d="M 270.800781 551.289062 C 287.949219 582.128906 318.410156 607.472656 362.5 615.339844 C 417.003906 625.066406 470.332031 619.496094 535.457031 569.40625 C 562.761719 548.398438 582.347656 525.382812 594.800781 503.375 C 569.671875 538.105469 532.910156 561.242188 493.496094 577.300781 C 416.585938 608.632812 352.105469 608.589844 282.808594 560.480469 C 278.652344 557.589844 274.660156 554.523438 270.800781 551.289062 Z M 270.800781 551.289062 " fill-opacity="1" fill-rule="evenodd"/><path fill="#ffe9d1" d="M 156.34375 241.683594 C 149.042969 247.285156 136.441406 259.382812 131.109375 265.773438 C 126.074219 271.808594 120.398438 280.121094 117.109375 287.347656 C 108.707031 305.746094 103.957031 340.507812 131.421875 342.128906 C 142.429688 342.769531 153.425781 338.269531 162.839844 332.566406 C 185.167969 319.039062 205.871094 292.472656 210.964844 265.507812 C 211.84375 260.859375 212.097656 256.089844 211.832031 251.367188 C 211.636719 247.792969 211.265625 244.054688 210.011719 240.6875 C 201.789062 218.367188 168.796875 232.121094 156.34375 241.683594 Z M 156.34375 241.683594 " fill-opacity="0.451" fill-rule="evenodd"/><path fill="#ffe9d1" d="M 415.082031 362.109375 C 399.324219 355.480469 372.316406 361.75 371.765625 361.898438 C 370.113281 362.316406 363.886719 363.910156 362.277344 364.492188 C 357.570312 366.160156 352.9375 368.246094 348.558594 370.628906 C 346.027344 372 343.570312 373.535156 341.15625 375.128906 C 339.265625 376.382812 337.417969 377.691406 335.628906 379.09375 C 325.859375 386.78125 310.277344 403.707031 325.097656 414.492188 C 331.90625 419.4375 340.753906 419.230469 348.722656 418.1875 C 369.039062 415.519531 386.960938 405.464844 403.003906 393.871094 C 407.484375 390.625 412.074219 387.539062 416.585938 384.335938 C 419.269531 382.429688 422.574219 380.210938 423.78125 377.007812 C 425.839844 371.597656 423.707031 365.730469 415.082031 362.109375 Z M 415.082031 362.109375 " fill-opacity="1" fill-rule="evenodd"/><path fill="#ffe9d1" d="M 442.746094 374.027344 C 436.472656 366.011719 444.085938 352.78125 458.832031 354.839844 C 473.578125 356.910156 482.636719 367.011719 480.550781 373.789062 C 478.449219 380.582031 457.773438 393.203125 442.746094 374.027344 Z M 442.746094 374.027344 " fill-opacity="1" fill-rule="evenodd"/><path fill="#ffe9d1" d="M 540.339844 269.007812 C 536.988281 254.289062 562.269531 245.140625 595.886719 252.796875 C 629.507812 260.457031 654.546875 281.402344 654.621094 294.722656 C 654.683594 308.042969 632.738281 299.625 607.433594 296.316406 C 582.140625 293.007812 545.257812 290.566406 540.339844 269.007812 Z M 540.339844 269.007812 " fill-opacity="0.346" fill-rule="evenodd"/></svg>