<svg xmlns="http://www.w3.org/2000/svg" xmlns:xlink="http://www.w3.org/1999/xlink" width="1080" zoomAndPan="magnify" viewBox="0 0 810 809.999993" height="1080" preserveAspectRatio="xMidYMid meet" version="1.0"><defs><clipPath id="8f9c8c9aa0"><path d="M 63 84.949219 L 461.777344 84.949219 L 461.777344 572 L 63 572 Z M 63 84.949219 " clip-rule="nonzero"/></clipPath><clipPath id="9995189688"><path d="M 41.027344 195 L 445 195 L 445 614.449219 L 41.027344 614.449219 Z M 41.027344 195 " clip-rule="nonzero"/></clipPath><clipPath id="5471cdd3f9"><path d="M 296 218 L 677 218 L 677 661 L 296 661 Z M 296 218 " clip-rule="nonzero"/></clipPath><clipPath id="5dc15721a9"><path d="M 476.300781 141.300781 L 768.84375 319.898438 L 521.46875 725.105469 L 228.925781 546.507812 Z M 476.300781 141.300781 " clip-rule="nonzero"/></clipPath><clipPath id="cc44d38a34"><path d="M 476.300781 141.300781 L 768.84375 319.898438 L 521.46875 725.105469 L 228.925781 546.507812 Z M 476.300781 141.300781 " clip-rule="nonzero"/></clipPath><clipPath id="ef99917a01"><path d="M 476.300781 141.300781 L 768.84375 319.898438 L 521.46875 725.105469 L 228.925781 546.507812 Z M 476.300781 141.300781 " clip-rule="nonzero"/></clipPath><clipPath id="5ea7deb546"><path d="M 373 549 L 629 549 L 629 661 L 373 661 Z M 373 549 " clip-rule="nonzero"/></clipPath><clipPath id="3959c08253"><path d="M 476.300781 141.300781 L 768.84375 319.898438 L 521.46875 725.105469 L 228.925781 546.507812 Z M 476.300781 141.300781 " clip-rule="nonzero"/></clipPath><clipPath id="bc1eab4531"><path d="M 476.300781 141.300781 L 768.84375 319.898438 L 521.46875 725.105469 L 228.925781 546.507812 Z M 476.300781 141.300781 " clip-rule="nonzero"/></clipPath><clipPath id="d7b44efb3c"><path d="M 476.300781 141.300781 L 768.84375 319.898438 L 521.46875 725.105469 L 228.925781 546.507812 Z M 476.300781 141.300781 " clip-rule="nonzero"/></clipPath><clipPath id="acc51192bb"><path d="M 296 317 L 677 317 L 677 661 L 296 661 Z M 296 317 " clip-rule="nonzero"/></clipPath><clipPath id="9b1ff7af75"><path d="M 476.300781 141.300781 L 768.84375 319.898438 L 521.46875 725.105469 L 228.925781 546.507812 Z M 476.300781 141.300781 " clip-rule="nonzero"/></clipPath><clipPath id="fb094ed032"><path d="M 476.300781 141.300781 L 768.84375 319.898438 L 521.46875 725.105469 L 228.925781 546.507812 Z M 476.300781 141.300781 " clip-rule="nonzero"/></clipPath><clipPath id="ec8c665c47"><path d="M 476.300781 141.300781 L 768.84375 319.898438 L 521.46875 725.105469 L 228.925781 546.507812 Z M 476.300781 141.300781 " clip-rule="nonzero"/></clipPath><clipPath id="8a937fcb19"><path d="M 417 240 L 619 240 L 619 386 L 417 386 Z M 417 240 " clip-rule="nonzero"/></clipPath><clipPath id="1135e21b49"><path d="M 476.300781 141.300781 L 768.84375 319.898438 L 521.46875 725.105469 L 228.925781 546.507812 Z M 476.300781 141.300781 " clip-rule="nonzero"/></clipPath><clipPath id="d09e3c6462"><path d="M 476.300781 141.300781 L 768.84375 319.898438 L 521.46875 725.105469 L 228.925781 546.507812 Z M 476.300781 141.300781 " clip-rule="nonzero"/></clipPath><clipPath id="38aed77d8b"><path d="M 476.300781 141.300781 L 768.84375 319.898438 L 521.46875 725.105469 L 228.925781 546.507812 Z M 476.300781 141.300781 " clip-rule="nonzero"/></clipPath></defs><g clip-path="url(#8f9c8c9aa0)"><path fill="#ffc487" d="M 251.53125 84.949219 C 367.71875 84.949219 461.777344 265.074219 461.777344 389.378906 C 461.777344 420.765625 455.773438 450.648438 444.925781 477.789062 C 406.757812 534.734375 344.355469 571.832031 273.851562 571.832031 C 157.667969 571.832031 63.480469 471.070312 63.480469 346.765625 C 63.480469 300.167969 76.734375 245.730469 99.425781 195.871094 C 137.757812 132.640625 191.746094 84.949219 251.53125 84.949219 " fill-opacity="1" fill-rule="nonzero"/></g><g clip-path="url(#9995189688)"><path fill="#e6b07a" d="M 273.855469 571.832031 C 344.355469 571.832031 406.757812 534.734375 444.925781 477.789062 C 412.816406 558.140625 338.257812 614.449219 251.402344 614.449219 C 135.214844 614.449219 41.027344 513.683594 41.027344 389.378906 C 41.027344 329.035156 63.257812 255.53125 99.425781 195.871094 C 76.734375 245.726562 63.480469 300.171875 63.480469 346.761719 C 63.480469 471.066406 157.667969 571.832031 273.855469 571.832031 " fill-opacity="1" fill-rule="nonzero"/></g><path fill="#ffd4a8" d="M 375.210938 177.273438 C 390.289062 215.410156 381.378906 254.683594 355.300781 265 C 329.222656 275.3125 295.855469 252.753906 280.777344 214.617188 C 265.695312 176.484375 274.613281 137.207031 300.6875 126.894531 C 326.769531 116.578125 360.132812 139.132812 375.210938 177.273438 " fill-opacity="1" fill-rule="nonzero"/><g clip-path="url(#5471cdd3f9)"><g clip-path="url(#5dc15721a9)"><g clip-path="url(#cc44d38a34)"><g clip-path="url(#ef99917a01)"><path fill="#ee9f5f" d="M 626.886719 552.035156 C 558.582031 663.925781 455.828125 685.132812 375.125 635.867188 C 294.449219 586.613281 266.382812 485.539062 334.691406 373.648438 C 403.003906 261.75 554.105469 188.890625 622.507812 230.652344 C 692.800781 273.566406 695.203125 440.136719 626.886719 552.035156 " fill-opacity="1" fill-rule="nonzero"/></g></g></g></g><g clip-path="url(#5ea7deb546)"><g clip-path="url(#3959c08253)"><g clip-path="url(#bc1eab4531)"><g clip-path="url(#d7b44efb3c)"><path fill="#e7e6e7" d="M 375.125 635.867188 C 375.09375 635.847656 375.050781 635.820312 375.019531 635.800781 C 375.054688 635.824219 375.09375 635.847656 375.125 635.867188 C 455.828125 685.132812 558.582031 663.925781 626.886719 552.035156 C 558.582031 663.925781 455.828125 685.132812 375.125 635.867188 M 374.992188 635.785156 C 374.964844 635.769531 374.933594 635.75 374.898438 635.730469 C 374.933594 635.75 374.964844 635.769531 374.992188 635.785156 M 374.882812 635.71875 C 374.851562 635.691406 374.824219 635.675781 374.785156 635.652344 C 374.816406 635.671875 374.851562 635.699219 374.882812 635.71875 M 374.757812 635.636719 C 374.730469 635.617188 374.703125 635.601562 374.679688 635.585938 C 374.703125 635.601562 374.726562 635.617188 374.757812 635.636719 M 374.644531 635.566406 C 374.613281 635.546875 374.582031 635.527344 374.550781 635.507812 C 374.578125 635.523438 374.621094 635.550781 374.644531 635.566406 M 374.515625 635.488281 C 374.492188 635.472656 374.46875 635.457031 374.441406 635.441406 C 374.46875 635.457031 374.492188 635.472656 374.515625 635.488281 M 374.40625 635.417969 C 374.371094 635.398438 374.339844 635.378906 374.308594 635.359375 C 374.339844 635.378906 374.371094 635.398438 374.40625 635.417969 M 374.269531 635.335938 C 374.253906 635.328125 374.234375 635.3125 374.210938 635.300781 C 374.226562 635.3125 374.253906 635.328125 374.269531 635.335938 M 374.164062 635.273438 C 374.140625 635.257812 374.121094 635.246094 374.105469 635.234375 C 374.121094 635.246094 374.148438 635.261719 374.164062 635.273438 M 374.023438 635.1875 C 374.007812 635.175781 373.992188 635.167969 373.976562 635.15625 C 373.992188 635.167969 374.007812 635.175781 374.023438 635.1875 M 373.917969 635.117188 C 373.902344 635.105469 373.894531 635.097656 373.882812 635.09375 C 373.894531 635.097656 373.902344 635.105469 373.917969 635.117188 M 373.667969 634.960938 C 373.664062 634.957031 373.65625 634.957031 373.652344 634.953125 C 373.65625 634.957031 373.664062 634.957031 373.667969 634.960938 M 626.949219 551.9375 C 626.949219 551.933594 626.960938 551.917969 626.964844 551.914062 C 626.957031 551.921875 626.949219 551.933594 626.949219 551.9375 M 627.007812 551.84375 C 627.011719 551.832031 627.015625 551.828125 627.027344 551.808594 C 627.019531 551.820312 627.011719 551.832031 627.007812 551.84375 M 627.070312 551.734375 C 627.074219 551.730469 627.078125 551.726562 627.082031 551.71875 C 627.082031 551.71875 627.074219 551.730469 627.070312 551.734375 M 627.140625 551.621094 C 627.148438 551.613281 627.152344 551.605469 627.15625 551.597656 C 627.152344 551.601562 627.148438 551.613281 627.140625 551.621094 M 627.203125 551.519531 C 627.207031 551.515625 627.214844 551.5 627.21875 551.492188 C 627.210938 551.503906 627.207031 551.515625 627.203125 551.519531 M 627.261719 551.425781 C 627.265625 551.417969 627.273438 551.402344 627.277344 551.398438 C 627.273438 551.40625 627.269531 551.414062 627.261719 551.425781 M 627.332031 551.3125 C 627.335938 551.304688 627.335938 551.304688 627.335938 551.300781 C 627.335938 551.304688 627.335938 551.304688 627.332031 551.3125 M 627.394531 551.210938 C 627.402344 551.191406 627.40625 551.1875 627.417969 551.171875 C 627.40625 551.1875 627.402344 551.191406 627.394531 551.210938 M 627.457031 551.105469 C 627.460938 551.097656 627.464844 551.089844 627.476562 551.074219 C 627.46875 551.085938 627.457031 551.101562 627.457031 551.105469 M 627.519531 551.003906 C 627.523438 550.996094 627.523438 550.996094 627.535156 550.980469 C 627.527344 550.988281 627.519531 551 627.519531 551.003906 M 627.59375 550.882812 C 627.597656 550.875 627.59375 550.882812 627.597656 550.875 C 627.59375 550.882812 627.59375 550.882812 627.59375 550.882812 M 627.648438 550.789062 C 627.652344 550.785156 627.660156 550.769531 627.667969 550.757812 C 627.660156 550.769531 627.65625 550.78125 627.648438 550.789062 M 627.710938 550.6875 C 627.714844 550.683594 627.722656 550.667969 627.726562 550.660156 C 627.722656 550.671875 627.71875 550.679688 627.710938 550.6875 M 627.777344 550.582031 C 627.78125 550.574219 627.78125 550.570312 627.785156 550.566406 C 627.78125 550.570312 627.78125 550.574219 627.777344 550.582031 M 627.839844 550.464844 L 627.851562 550.449219 C 627.847656 550.453125 627.84375 550.460938 627.839844 550.464844 M 627.898438 550.367188 C 627.910156 550.351562 627.910156 550.351562 627.914062 550.34375 C 627.910156 550.347656 627.90625 550.359375 627.898438 550.367188 M 627.964844 550.261719 C 627.96875 550.257812 627.972656 550.25 627.972656 550.246094 C 627.972656 550.25 627.96875 550.257812 627.964844 550.261719 M 628.097656 550.042969 L 628.101562 550.035156 L 628.097656 550.042969 M 628.15625 549.945312 C 628.160156 549.9375 628.164062 549.933594 628.167969 549.929688 C 628.164062 549.933594 628.160156 549.9375 628.15625 549.945312 M 628.347656 549.625 C 628.351562 549.613281 628.347656 549.621094 628.355469 549.609375 L 628.347656 549.625 M 628.410156 549.515625 C 628.414062 549.511719 628.410156 549.515625 628.417969 549.507812 L 628.410156 549.515625 M 628.597656 549.199219 L 628.601562 549.191406 L 628.597656 549.199219 " fill-opacity="1" fill-rule="nonzero"/></g></g></g></g><g clip-path="url(#acc51192bb)"><g clip-path="url(#9b1ff7af75)"><g clip-path="url(#fb094ed032)"><g clip-path="url(#ec8c665c47)"><path fill="#d78f56" d="M 375.125 635.867188 C 375.09375 635.847656 375.054688 635.824219 375.019531 635.800781 C 375.007812 635.792969 375.003906 635.792969 374.992188 635.785156 C 374.964844 635.769531 374.933594 635.75 374.898438 635.730469 C 374.894531 635.726562 374.890625 635.722656 374.882812 635.71875 C 374.851562 635.699219 374.816406 635.671875 374.785156 635.652344 C 374.773438 635.644531 374.765625 635.636719 374.757812 635.636719 C 374.726562 635.617188 374.703125 635.601562 374.679688 635.585938 C 374.667969 635.578125 374.65625 635.574219 374.644531 635.566406 C 374.621094 635.550781 374.578125 635.523438 374.550781 635.507812 C 374.539062 635.5 374.527344 635.496094 374.515625 635.488281 C 374.492188 635.472656 374.46875 635.457031 374.441406 635.441406 C 374.425781 635.433594 374.414062 635.425781 374.40625 635.417969 C 374.371094 635.398438 374.339844 635.378906 374.308594 635.359375 C 374.296875 635.351562 374.285156 635.347656 374.269531 635.335938 C 374.253906 635.328125 374.226562 635.3125 374.210938 635.300781 C 374.195312 635.292969 374.179688 635.28125 374.164062 635.273438 C 374.148438 635.261719 374.121094 635.246094 374.105469 635.234375 C 374.078125 635.21875 374.050781 635.203125 374.023438 635.1875 C 374.007812 635.175781 373.992188 635.167969 373.976562 635.15625 C 373.953125 635.144531 373.941406 635.128906 373.917969 635.117188 C 373.902344 635.105469 373.894531 635.097656 373.882812 635.09375 C 373.8125 635.050781 373.738281 635.003906 373.667969 634.960938 C 373.664062 634.957031 373.65625 634.957031 373.652344 634.953125 C 318.699219 600.695312 288.753906 542.113281 297.824219 472.519531 C 308.792969 512.0625 334.339844 544.878906 370.71875 567.085938 C 451.425781 616.359375 554.179688 595.160156 622.480469 483.277344 C 652.910156 433.4375 669.257812 372.773438 671.878906 317.007812 C 685.109375 385.738281 670.953125 478.011719 628.601562 549.191406 L 628.597656 549.199219 C 628.535156 549.300781 628.480469 549.40625 628.417969 549.507812 C 628.410156 549.515625 628.414062 549.511719 628.410156 549.515625 C 628.386719 549.554688 628.375 549.578125 628.355469 549.609375 C 628.347656 549.621094 628.351562 549.613281 628.347656 549.625 C 628.304688 549.695312 628.265625 549.757812 628.226562 549.832031 C 628.210938 549.859375 628.1875 549.894531 628.167969 549.929688 C 628.164062 549.933594 628.160156 549.9375 628.15625 549.945312 C 628.136719 549.976562 628.121094 550.003906 628.101562 550.035156 L 628.097656 550.042969 C 628.054688 550.109375 628.015625 550.175781 627.972656 550.246094 C 627.972656 550.25 627.96875 550.257812 627.964844 550.261719 C 627.949219 550.289062 627.933594 550.316406 627.914062 550.34375 C 627.910156 550.351562 627.910156 550.351562 627.898438 550.367188 C 627.882812 550.394531 627.867188 550.421875 627.851562 550.449219 L 627.839844 550.464844 C 627.820312 550.496094 627.804688 550.523438 627.785156 550.566406 C 627.78125 550.570312 627.78125 550.574219 627.777344 550.582031 C 627.761719 550.609375 627.742188 550.636719 627.726562 550.660156 C 627.722656 550.667969 627.714844 550.683594 627.710938 550.6875 C 627.695312 550.714844 627.679688 550.738281 627.667969 550.757812 C 627.660156 550.769531 627.652344 550.785156 627.648438 550.789062 C 627.632812 550.816406 627.613281 550.851562 627.597656 550.875 C 627.59375 550.882812 627.597656 550.875 627.59375 550.882812 C 627.574219 550.914062 627.554688 550.945312 627.535156 550.980469 C 627.523438 550.996094 627.523438 550.996094 627.519531 551.003906 C 627.5 551.03125 627.492188 551.046875 627.476562 551.074219 C 627.464844 551.089844 627.460938 551.097656 627.457031 551.105469 C 627.4375 551.132812 627.429688 551.148438 627.417969 551.171875 C 627.40625 551.1875 627.402344 551.191406 627.394531 551.210938 C 627.375 551.234375 627.355469 551.269531 627.335938 551.300781 C 627.335938 551.304688 627.335938 551.304688 627.332031 551.3125 C 627.316406 551.339844 627.292969 551.371094 627.277344 551.398438 C 627.273438 551.402344 627.265625 551.417969 627.261719 551.425781 C 627.246094 551.449219 627.234375 551.46875 627.21875 551.492188 C 627.214844 551.5 627.207031 551.515625 627.203125 551.519531 C 627.1875 551.546875 627.171875 551.574219 627.15625 551.597656 C 627.152344 551.605469 627.148438 551.613281 627.140625 551.621094 C 627.117188 551.660156 627.105469 551.683594 627.082031 551.71875 C 627.078125 551.726562 627.074219 551.730469 627.070312 551.734375 C 627.054688 551.761719 627.042969 551.785156 627.027344 551.808594 C 627.015625 551.828125 627.011719 551.832031 627.007812 551.84375 C 626.988281 551.871094 626.980469 551.886719 626.964844 551.914062 C 626.960938 551.917969 626.949219 551.933594 626.949219 551.9375 C 626.929688 551.972656 626.90625 552.003906 626.886719 552.035156 C 558.582031 663.925781 455.828125 685.132812 375.125 635.867188 " fill-opacity="1" fill-rule="nonzero"/></g></g></g></g><g clip-path="url(#8a937fcb19)"><g clip-path="url(#1135e21b49)"><g clip-path="url(#d09e3c6462)"><g clip-path="url(#38aed77d8b)"><path fill="#f1b177" d="M 433.6875 371.652344 C 399.253906 350.644531 421.707031 293.59375 491.226562 260.558594 C 542.75 236.289062 588.234375 235.609375 608.074219 247.722656 C 614.894531 251.886719 618.691406 257.5625 618.648438 264.308594 C 619.097656 290.917969 584.613281 288.925781 549.164062 354.796875 C 529.265625 391.75 469.042969 393.234375 434.359375 372.0625 C 434.230469 371.984375 434.105469 371.90625 433.976562 371.828125 C 433.878906 371.769531 433.777344 371.707031 433.6875 371.652344 " fill-opacity="1" fill-rule="nonzero"/></g></g></g></g></svg>