<svg width="1440" height="500" viewBox="0 0 1440 500" fill="none" xmlns="http://www.w3.org/2000/svg">
<path d="M1440 42.998C1345.52 43.1987 1270.77 33.3998 1213.99 23.9443C1157.22 14.4861 1094.14 3.39297 1002.37 0.598576C912.05 -2.15356 842.61 4.98565 785.726 13.8232C720.055 24.0262 639.157 47.4987 569.38 55.2374C499.602 62.9762 415.311 67.1995 312.355 61.3651C227.959 58.2881 54.8715 28.0964 1.56652e-06 19.4939L4.018e-05 500L1440 500L1440 43.0006L1440 42.998Z" fill="#FF5700"/>
<path d="M1440 42.998C1345.52 43.1987 1270.77 33.3998 1213.99 23.9443C1157.22 14.4861 1094.14 3.39297 1002.37 0.598576C912.05 -2.15356 842.61 4.98565 785.726 13.8232C720.055 24.0262 639.157 47.4987 569.38 55.2375C499.602 62.9762 415.311 67.1995 312.355 61.3651C227.959 58.2881 54.8715 28.0964 1.56652e-06 19.4939L4.018e-05 500L1440 500L1440 43.0006L1440 42.998Z" fill="url(#paint0_linear_254_15202)"/>
<mask id="mask0_254_15202" style="mask-type:alpha" maskUnits="userSpaceOnUse" x="0" y="0" width="1440" height="500">
<path d="M1440 42.998C1345.52 43.1987 1270.77 33.3998 1213.99 23.9443C1157.22 14.4861 1094.14 3.39297 1002.37 0.598576C912.05 -2.15356 842.61 4.98565 785.726 13.8232C720.055 24.0262 639.157 47.4987 569.38 55.2375C499.602 62.9762 415.311 67.1995 312.355 61.3651C227.959 58.2881 54.8715 28.0964 1.56652e-06 19.4939L4.018e-05 500L1440 500L1440 43.0006L1440 42.998Z" fill="url(#paint1_linear_254_15202)"/>
</mask>
<g mask="url(#mask0_254_15202)">
<path d="M-407.662 46.1635C-600.682 177.123 -909.424 -2.7793 -1144.18 156.496C-1381.14 315.38 -1353.49 720.019 -627.118 849.06C99.2554 978.102 35.3196 418.514 221.82 291.978C408.319 165.443 598.518 265.109 812.406 119.991C1026.29 -25.1271 923.513 -350.439 1370.85 -653.948C1818.19 -957.457 1217.46 -1339.97 1024.44 -1209.01C831.416 -1078.05 959.442 -864.372 699.907 -688.284C440.373 -512.196 87.1954 -643.048 -131.909 -494.391C-351.014 -345.734 -214.641 -84.7966 -407.662 46.1635Z" fill="url(#paint2_linear_254_15202)" fill-opacity="0.6"/>
<path d="M504.338 880.163C311.318 1011.12 2.57616 831.221 -232.179 990.496C-469.142 1149.38 -441.491 1554.02 284.882 1683.06C1011.26 1812.1 947.32 1252.51 1133.82 1125.98C1320.32 999.443 1510.52 1099.11 1724.41 953.991C1938.29 808.873 1835.51 483.561 2282.85 180.052C2730.19 -123.457 2129.46 -505.967 1936.44 -375.007C1743.42 -244.047 1871.44 -30.372 1611.91 145.716C1352.37 321.804 999.195 190.952 780.091 339.609C560.986 488.266 697.359 749.203 504.338 880.163Z" fill="url(#paint3_linear_254_15202)" fill-opacity="0.4"/>
</g>
<defs>
<linearGradient id="paint0_linear_254_15202" x1="1011" y1="500" x2="582.091" y2="-79.3472" gradientUnits="userSpaceOnUse">
<stop stop-color="#FF5700"/>
<stop offset="1" stop-color="#F7941D"/>
</linearGradient>
<linearGradient id="paint1_linear_254_15202" x1="1011" y1="500" x2="582.091" y2="-79.3472" gradientUnits="userSpaceOnUse">
<stop stop-color="#FF5700"/>
<stop offset="1" stop-color="#F7941D"/>
</linearGradient>
<linearGradient id="paint2_linear_254_15202" x1="198.027" y1="-819.65" x2="707.81" y2="184.895" gradientUnits="userSpaceOnUse">
<stop stop-color="#F7941D" stop-opacity="0"/>
<stop offset="1" stop-color="#F7941D"/>
</linearGradient>
<linearGradient id="paint3_linear_254_15202" x1="1110.03" y1="14.35" x2="1619.81" y2="1018.9" gradientUnits="userSpaceOnUse">
<stop stop-color="#F7941D"/>
<stop offset="1" stop-color="#F7941D" stop-opacity="0"/>
</linearGradient>
</defs>
</svg>
